<svg width="13" height="15" viewBox="0 0 13 15" fill="none" xmlns="http://www.w3.org/2000/svg">
<path d="M11.4583 14.1667H1.54167C0.759263 14.1667 0.125 13.5324 0.125 12.75V2.83333C0.125 2.05093 0.759263 1.41667 1.54167 1.41667H2.95833V0H4.375V1.41667H8.625V0H10.0417V1.41667H11.4583C12.2407 1.41667 12.875 2.05093 12.875 2.83333V12.75C12.875 13.5324 12.2407 14.1667 11.4583 14.1667ZM1.54167 5.66667V12.75H11.4583V5.66667H1.54167ZM1.54167 2.83333V4.25H11.4583V2.83333H1.54167ZM10.0417 11.3333H8.625V9.91667H10.0417V11.3333ZM7.20833 11.3333H5.79167V9.91667H7.20833V11.3333ZM4.375 11.3333H2.95833V9.91667H4.375V11.3333ZM10.0417 8.5H8.625V7.08333H10.0417V8.5ZM7.20833 8.5H5.79167V7.08333H7.20833V8.5ZM4.375 8.5H2.95833V7.08333H4.375V8.5Z" fill="#006838"/>
</svg>
